<?xml version="1.0" encoding="UTF-8" standalone="no"?>
<svg
   width="592.15601pt"
   height="364.54379pt"
   viewBox="0 0 592.15601 364.54379"
   version="1.1"
   id="svg301"
   sodipodi:docname="logo.svg"
   inkscape:version="1.2.1 (9c6d41e, 2022-07-14)"
   inkscape:export-filename="logo.png"
   inkscape:export-xdpi="250"
   inkscape:export-ydpi="250"
   xmlns:inkscape="http://www.inkscape.org/namespaces/inkscape"
   xmlns:sodipodi="http://sodipodi.sourceforge.net/DTD/sodipodi-0.dtd"
   xmlns="http://www.w3.org/2000/svg"
   xmlns:svg="http://www.w3.org/2000/svg"
   xmlns:ns1="http://www.iki.fi/pav/software/textext/">
  <defs
     id="defs305">
    <inkscape:path-effect
       effect="bspline"
       id="path-effect53198"
       is_visible="true"
       lpeversion="1"
       weight="33.333333"
       steps="2"
       helper_size="0"
       apply_no_weight="true"
       apply_with_weight="true"
       only_selected="false" />
    <inkscape:path-effect
       effect="bspline"
       id="path-effect29670"
       is_visible="true"
       lpeversion="1"
       weight="33.333333"
       steps="2"
       helper_size="0"
       apply_no_weight="true"
       apply_with_weight="true"
       only_selected="false" />
    <inkscape:path-effect
       effect="bspline"
       id="path-effect22149"
       is_visible="true"
       lpeversion="1"
       weight="33.333333"
       steps="2"
       helper_size="0"
       apply_no_weight="true"
       apply_with_weight="true"
       only_selected="false" />
    <inkscape:path-effect
       effect="bspline"
       id="path-effect22121"
       is_visible="true"
       lpeversion="1"
       weight="33.333333"
       steps="2"
       helper_size="0"
       apply_no_weight="true"
       apply_with_weight="true"
       only_selected="false" />
    <marker
       style="overflow:visible"
       id="marker21921"
       refX="0"
       refY="0"
       orient="auto-start-reverse"
       inkscape:stockid="RoundedArrow"
       markerWidth="2.135"
       markerHeight="2.0639148"
       viewBox="0 0 6.1347524 5.9304951"
       inkscape:isstock="true"
       inkscape:collect="always"
       preserveAspectRatio="xMidYMid">
      <path
         transform="scale(0.7)"
         d="m -0.21114562,-4.1055728 6.42229122,3.21114561 a 1,1 90 0 1 0,1.78885438 L -0.21114562,4.1055728 A 1.236068,1.236068 31.717474 0 1 -2,3 v -6 a 1.236068,1.236068 148.28253 0 1 1.78885438,-1.1055728 z"
         style="fill:context-stroke;fill-rule:evenodd;stroke:none"
         id="path21919" />
    </marker>
    <marker
       style="overflow:visible"
       id="RoundedArrow"
       refX="0"
       refY="0"
       orient="auto-start-reverse"
       inkscape:stockid="RoundedArrow"
       markerWidth="2.135"
       markerHeight="2.06391485"
       viewBox="0 0 6.1347524 5.9304951"
       inkscape:isstock="true"
       inkscape:collect="always"
       preserveAspectRatio="xMidYMid">
      <path
         transform="scale(0.7)"
         d="m -0.21114562,-4.1055728 6.42229122,3.21114561 a 1,1 90 0 1 0,1.78885438 L -0.21114562,4.1055728 A 1.236068,1.236068 31.717474 0 1 -2,3 v -6 a 1.236068,1.236068 148.28253 0 1 1.78885438,-1.1055728 z"
         style="fill:context-stroke;fill-rule:evenodd;stroke:none"
         id="path1367" />
    </marker>
    <inkscape:path-effect
       effect="bspline"
       id="path-effect21569"
       is_visible="true"
       lpeversion="1"
       weight="33.333333"
       steps="2"
       helper_size="0"
       apply_no_weight="true"
       apply_with_weight="true"
       only_selected="false" />
    <inkscape:path-effect
       effect="bspline"
       id="path-effect21565"
       is_visible="true"
       lpeversion="1"
       weight="33.333333"
       steps="2"
       helper_size="0"
       apply_no_weight="true"
       apply_with_weight="true"
       only_selected="false" />
    <inkscape:path-effect
       effect="bspline"
       id="path-effect21535"
       is_visible="true"
       lpeversion="1"
       weight="33.333333"
       steps="2"
       helper_size="0"
       apply_no_weight="true"
       apply_with_weight="true"
       only_selected="false" />
    <inkscape:path-effect
       effect="bspline"
       id="path-effect10326"
       is_visible="true"
       lpeversion="1"
       weight="33.333333"
       steps="2"
       helper_size="0"
       apply_no_weight="true"
       apply_with_weight="true"
       only_selected="false" />
  </defs>
  <sodipodi:namedview
     id="namedview303"
     pagecolor="#ffffff"
     bordercolor="#999999"
     borderopacity="1"
     inkscape:showpageshadow="0"
     inkscape:pageopacity="0"
     inkscape:pagecheckerboard="0"
     inkscape:deskcolor="#d1d1d1"
     inkscape:document-units="pt"
     showgrid="true"
     inkscape:zoom="0.72818278"
     inkscape:cx="271.22311"
     inkscape:cy="293.88226"
     inkscape:window-width="1463"
     inkscape:window-height="916"
     inkscape:window-x="49"
     inkscape:window-y="38"
     inkscape:window-maximized="1"
     inkscape:current-layer="svg301"
     showguides="false">
    <inkscape:grid
       type="xygrid"
       id="grid21168"
       originx="174.82292"
       originy="0" />
  </sodipodi:namedview>
  <path
     style="fill:#ca3a33;fill-opacity:1;fill-rule:nonzero;stroke:none"
     d="m 235.46712,222.45763 c 0,41.42187 -33.57813,75 -75,75 -41.42188,0 -75.000005,-33.57813 -75.000005,-75 0,-41.42188 33.578125,-75 75.000005,-75 41.42187,0 75,33.57812 75,75"
     id="path294" />
  <path
     style="fill:#389723;fill-opacity:1;fill-rule:nonzero;stroke:none"
     d="m 412.32291,75 c 0,41.42188 -33.57813,75 -75,75 -41.42187,0 -75,-33.57812 -75,-75 0,-41.421875 33.57813,-75 75,-75 41.42187,0 75,33.578125 75,75"
     id="path296" />
  <path
     style="fill:#9457b0;fill-opacity:1;fill-rule:nonzero;stroke:none"
     d="m 587.09673,225 c 0,41.42187 -33.57812,75 -75,75 -41.42187,0 -75,-33.57813 -75,-75 0,-41.42188 33.57813,-75 75,-75 41.42188,0 75,33.57812 75,75"
     id="path298" />
  <path
     style="fill:none;stroke:#000000;stroke-width:2.5;stroke-linejoin:round;stroke-dasharray:none;stroke-opacity:1;stop-color:#000000"
     d="m 268.45058,75.851617 c 0.62928,0.12214 1.25856,0.24274 1.88784,0.31296 0.62898,0.0694 1.25826,0.0855 1.88754,0.0129 0.62899,-0.0725 1.25827,-0.2351 1.88754,-0.46639 0.62928,-0.23128 1.25826,-0.5305 1.88754,-0.81064 0.62927,-0.28014 1.25855,-0.53661 1.88754,-0.65798 0.62928,-0.12136 1.25856,-0.1 1.88783,0.11526 0.62899,0.21526 1.25827,0.62974 1.88755,1.16559 0.62916,0.53585 1.25835,1.18924 1.88754,1.75791 0.62922,0.56945 1.25841,1.0427 1.88763,1.20528 0.62919,0.1626 1.25838,0.002 1.8876,-0.5389 0.62919,-0.54119 1.25839,-1.46709 1.8876,-2.56856 0.62919,-1.10147 1.25841,-2.36704 1.88761,-3.3876 0.62919,-1.02056 1.2584,-1.77319 1.88759,-1.8999 0.62922,-0.12747 1.25842,0.39158 1.88761,1.56175 0.62922,1.17093 1.25841,2.99449 1.88759,5.00507 0.62923,2.01058 1.25842,4.18298 1.88764,5.79305 0.62919,1.60991 1.25838,2.61817 1.8876,2.51887 0.62919,-0.0993 1.25838,-1.33253 1.8876,-3.5408 0.62919,-2.20866 1.25841,-5.38254 1.8876,-8.64267 0.62919,-3.26089 1.25841,-6.56147 1.8876,-8.78196 0.62922,-2.21973 1.25841,-3.30287 1.8876,-2.65864 0.62921,0.64348 1.25841,3.03953 1.88761,6.69887 0.62921,3.65859 1.25841,8.54993 1.88761,13.24654 0.6292,4.69624 1.2584,9.12256 1.8876,11.771424 0.62921,2.648941 1.25839,3.448592 1.88761,1.879212 0.62919,-1.569381 1.25842,-5.523826 1.88761,-10.872156 0.62919,-5.34849 1.2584,-12.03133 1.88759,-18.03406 0.62923,-6.00274 1.25842,-11.22383 1.88761,-13.90688 0.62922,-2.68306 1.25841,-2.75329 1.8876,0.0374 0.62922,2.78993 1.25841,8.43466 1.88763,15.35108 0.62919,6.91642 1.25838,15.01537 1.8876,21.81615 0.62919,6.800696 1.25838,12.186893 1.8876,14.404863 0.62919,2.21805 1.25842,1.2049 1.8876,-2.83946 0.62919,-4.044365 1.25841,-11.083373 1.88761,-19.012103 0.62922,-7.92858 1.25841,-16.63345 1.8876,-23.44987 0.62921,-6.81566 1.25841,-11.62914 1.8876,-12.97106 0.62922,-1.34191 1.25841,0.82438 1.88762,5.79816 0.6292,4.97378 1.25839,12.69015 1.88761,20.75613 0.62913,8.06597 1.25841,16.36026 1.88769,22.386038 0.62898,6.025785 1.25827,9.688485 1.88754,10.006325 0.62928,0.31785 1.25826,-2.71611 1.88754,-8.006357 0.62928,-5.290176 1.25856,-12.756026 1.88755,-20.042736 0.62927,-7.28662 1.25855,-14.28471 1.88783,-18.96156 0.62899,-4.67685 1.25826,-6.96909 1.88755,-6.42408 0.62898,0.54577 1.25826,3.91047 1.88754,8.82776 0.62927,4.9173 1.25826,11.30703 1.88754,17.15327 0.62928,5.84625 1.25855,11.06498 1.88754,14.22938 0.62928,3.164337 1.25856,4.240996 1.88784,3.199678 0.62899,-1.041241 1.25826,-4.168708 1.88754,-8.188718 0.62928,-4.02001 1.25826,-8.86555 1.88754,-13.03021 0.62928,-4.16542 1.25856,-7.59501 1.88754,-9.43766 0.62929,-1.84341 1.25856,-2.0892 1.88755,-0.94727 0.62928,1.14268 1.25856,3.64102 1.88783,6.54239 0.62899,2.90214 1.25827,6.16073 1.88754,8.79342 0.62929,2.63268 1.25827,4.60967 1.88755,5.5123 0.62928,0.90262 1.25856,0.73339 1.88754,-0.23297 0.62928,-0.96628 1.25856,-2.70314 1.88783,-4.55799 0.62899,-1.8541 1.25827,-3.79828 1.88755,-5.273 0.62898,-1.47397 1.25827,-2.46704 1.88754,-2.8197 0.62928,-0.35265 1.25827,-0.0717 1.88755,0.60684 0.62927,0.67859 1.25855,1.73807 1.88754,2.78916 0.62927,1.05109 1.25856,2.07928 1.88783,2.80977 0.62899,0.73049 1.25826,1.15872 1.88755,1.25108 0.62927,0.0931 1.25826,-0.1435 1.88754,-0.55111 0.62928,-0.40762 1.25856,-0.97705 1.88754,-1.50603 0.62928,-0.52898 1.25855,-1.01139 1.88755,-1.3297 0.62927,-0.31907 1.25855,-0.47402 1.88783,-0.47479 0.62899,0 1.25826,0.15038 1.88754,0.36334 0.62928,0.21297 1.25827,0.48319 1.88754,0.71982 0.62928,0.23662 1.25856,0.43661 1.88754,0.55875 0.62929,0.12212 1.25856,0.16716 1.88784,0.14884 0.62899,-0.0184 1.25827,-0.0977 1.88754,-0.19465 0.62899,-0.0977 1.25827,-0.21143 1.88754,-0.30532"
     title="cos(5*x)*exp(-((x-10)**2)/8)"
     id="path17387"
     sodipodi:nodetypes="cccssccccsccsccccscccccccccccccccsccccccsccccssccsccccsscccsscccscccsscscc" />
  <path
     style="fill:none;stroke:#000000;stroke-width:2.5;stroke-linejoin:round;stroke-dasharray:none;stroke-opacity:1;stop-color:#000000"
     d="m 91.367616,223.7327 c 0.466,0.0324 0.931,0.0707 1.396,0.11484 0.466,0.0442 0.931,0.0942 1.396,0.14723 0.465,0.053 0.931,0.11189 1.396,0.17372 0.465,0.0589 0.931,0.12367 1.396,0.18845 0.465,0.0648 0.93,0.12956 1.396,0.19434 0.465,0.0618 0.93,0.12367 1.396,0.17667 0.465004,0.053 0.930004,0.10012 1.396004,0.13251 0.465,0.0353 0.93,0.0589 1.395,0.0648 0.466,0.009 0.931,-0.003 1.396,-0.0353 0.466,-0.0324 0.931,-0.0883 1.396,-0.16784 0.466,-0.0795 0.931,-0.18845 1.396,-0.32389 0.465,-0.1384 0.931,-0.30329 1.396,-0.49763 0.465,-0.19728 0.931,-0.42401 1.396,-0.67724 0.465,-0.25617 0.931,-0.53885 1.396,-0.84508 0.465,-0.30623 0.93,-0.63602 1.396,-0.97758 0.465,-0.34451 0.93,-0.7008 1.396,-1.06003 0.465,-0.35629 0.93,-0.71552 1.396,-1.06298 0.465,-0.34451 0.93,-0.67135 1.395,-0.96875 0.466,-0.29739 0.931,-0.55946 1.396,-0.76852 0.466,-0.20906 0.931,-0.36512 1.396,-0.45051 0.466,-0.0825 0.931,-0.0942 1.396,-0.0147 0.465,0.0765 0.931,0.24439 1.396,0.51529 0.465,0.26795 0.931,0.63896 1.396,1.11597 0.465,0.47702 0.93,1.06298 1.396,1.74905 0.465,0.68902 0.93,1.4811 1.396,2.36152 0.465,0.88041 0.93,1.8521 1.396,2.89152 0.465,1.03942 0.93,2.14362 1.395,3.28315 0.466,1.13953 0.931,2.31145 1.396,3.47454 0.466,1.16309 0.931,2.32029 1.396,3.42154 0.466,1.10126 0.931,2.14362 1.396,3.08587 0.465,0.9393 0.931,1.77261 1.396,2.45574 0.465,0.68018 0.931,1.2102 1.396,1.54587 0.465,0.33862 0.931,0.47996 1.396,0.39751 0.465,-0.0795 0.93,-0.38278 1.396,-0.92458 0.465,-0.54179 0.93,-1.32209 1.396,-2.33501 0.465,-1.01292 0.93,-2.2614 1.396,-3.72188 0.465,-1.46049 0.93,-3.13298 1.395,-4.97331 0.466,-1.84033 0.931,-3.8485 1.396,-5.96856 0.466,-2.12006 0.931,-4.34906 1.396,-6.61341 0.466,-2.26728 0.931,-4.5699 1.396,-6.82541 0.465,-2.25846 0.931,-4.4698 1.396,-6.55452 0.465,-2.08473 0.931,-4.03989 1.396,-5.79189 0.465,-1.75199 0.93,-3.29492 1.396,-4.56991 0.465,-1.27203 0.93,-2.27317 1.396,-2.95925 0.465,-0.68313 0.93,-1.04825 1.396,-1.0718 0.465,-0.0206 0.93,0.29739 1.395,0.95991 0.466,0.65958 0.931,1.66366 1.396,2.97692 0.466,1.3162 0.931,2.94453 1.396,4.83197 0.466,1.89039 0.931,4.03695 1.396,6.3749 0.465,2.33501 0.931,4.85847 1.396,7.48205 0.465,2.62357 0.931,5.34726 1.396,8.07389 0.465,2.72958 0.931,5.4621 1.396,8.10334 0.465,2.64419 0.93,5.1971 1.396,7.57628 0.465,2.37917 0.93,4.58168 1.396,6.53685 0.465,1.95811 0.93,3.66888 1.396,5.08225 0.465,1.41338 0.93,2.52935 1.395,3.32437 0.466,0.79503 0.931,1.2691 1.396,1.41632 0.466,0.15017 0.931,-0.0265 1.396,-0.50057 0.466,-0.47407 0.931,-1.24848 1.396,-2.27906 0.465,-1.03059 0.931,-2.31735 1.396,-3.79844 0.465,-1.47816 0.931,-3.15359 1.396,-4.9527 0.465,-1.79911 0.93,-3.72188 1.396,-5.69177 0.465,-1.96989 0.93,-3.98689 1.396,-5.98034 0.465,-1.99639 0.93,-3.96333 1.396,-5.84489 0.465,-1.8786 0.93,-3.66888 1.395,-5.31781 0.466,-1.64894 0.931,-3.15359 1.396,-4.48157 0.466,-1.33093 0.931,-2.48224 1.396,-3.43332 0.466,-0.95403 0.931,-1.71077 1.396,-2.26435 0.465,-0.55651 0.931,-0.90985 1.396,-1.07769 0.465,-0.16784 0.931,-0.14723 1.396,0.0324 0.465,0.18256 0.931,0.53001 1.396,1.00114 0.465,0.47407 0.93,1.07769 1.396,1.76966 0.465,0.69196 0.93,1.47226 1.396,2.30262 0.465,0.83036 0.93,1.71077 1.396,2.60002 0.465,0.89219 0.93,1.79321 1.395,2.67363 0.466,0.87747 0.931,1.73432 1.396,2.54407 0.466,0.80975 0.9309,1.56943 1.3962,2.2614 0.4653,0.69491 0.9306,1.32209 1.3959,1.86977 0.4653,0.55063 0.9306,1.02175 1.3959,1.41338 0.4653,0.39162 0.9306,0.70374 1.3959,0.94224 0.4653,0.23557 0.9306,0.39752 1.3959,0.49174 0.4653,0.0942 0.9306,0.12073 1.3959,0.0942 0.4653,-0.0294 0.9306,-0.10895 1.3959,-0.23262 0.4653,-0.12073 0.9306,-0.28268 1.3959,-0.47113 0.4653,-0.1855 0.9306,-0.40045 1.3959,-0.62718 0.4653,-0.22378 0.9306,-0.46229 1.3959,-0.70374 0.4653,-0.23851 0.9306,-0.47702 1.3959,-0.70963 0.4653,-0.22968 0.9306,-0.45346 1.3958,-0.66252 0.4653,-0.20906 0.9306,-0.4034 1.3959,-0.57713 0.4653,-0.17667 0.9306,-0.33273 1.3959,-0.46818 0.4653,-0.13839 0.9306,-0.25617 1.3959,-0.35334 0.4653,-0.0972 0.9306,-0.17668 1.3959,-0.23557 0.4653,-0.0618 0.9306,-0.106 1.3959,-0.1325 0.4653,-0.0294 0.9306,-0.0442 1.3959,-0.0471 0.4653,-0.003 0.9306,0.006 1.3959,0.0206 0.4653,0.0177 0.9306,0.0412 1.3959,0.0677 0.4653,0.0294 0.9306,0.0648 1.3959,0.10012 0.4653,0.0353 0.9306,0.0707 1.3959,0.10895 0.4653,0.0383 0.9306,0.0736 1.3959,0.11189"
     title="cos(2*x)*exp(-((x-10)**2)/8)"
     id="path19676" />
  <path
     style="fill:none;stroke:#000000;stroke-width:2.5;stroke-linejoin:round;stroke-dasharray:none;stroke-opacity:1;stop-color:#000000"
     d="m 443.04891,225.41839 c 0.465,0.11311 0.931,0.18676 1.396,0.14994 0.465,-0.0368 0.931,-0.18676 1.396,-0.38142 0.465,-0.19465 0.931,-0.42087 1.396,-0.53135 0.465,-0.10784 0.93,-0.0842 1.396,0.1 0.465,0.18413 0.93,0.52346 1.396,0.82596 0.465,0.3025 0.93,0.5445 1.395,0.53924 0.466,-0.008 0.931,-0.2762 1.396,-0.6997 0.466,-0.42087 0.931,-0.97326 1.396,-1.30733 0.466,-0.33406 0.931,-0.41298 1.396,-0.11311 0.465,0.30251 0.931,0.98379 1.396,1.67822 0.465,0.69181 0.931,1.34679 1.396,1.49935 0.465,0.1552 0.931,-0.23147 1.396,-1.02587 0.465,-0.79439 0.93,-1.96756 1.396,-2.80404 0.465,-0.83648 0.93,-1.26261 1.396,-0.88646 0.465,0.37352 0.93,1.56248 1.396,2.94346 0.465,1.38098 0.93,2.86981 1.395,3.47744 0.466,0.605 0.931,0.25252 1.396,-1.03639 0.466,-1.28892 0.931,-3.46166 1.396,-5.24247 0.466,-1.7808 0.931,-3.025 1.396,-2.79089 0.465,0.23411 0.931,1.99387 1.396,4.40335 0.465,2.40685 0.931,5.32138 1.396,6.89438 0.465,1.573 0.931,1.64665 1.396,-0.10785 0.465,-1.75187 0.93,-5.27666 1.396,-8.54892 0.465,-3.27227 0.93,-6.0579 1.396,-6.43406 0.465,-0.37878 0.93,1.75977 1.395,5.41608 0.466,3.65631 0.931,8.62784 1.396,11.86064 0.466,3.23281 0.931,4.44545 1.396,2.55153 0.466,-1.89392 0.931,-6.86018 1.396,-12.10265 0.465,-5.24246 0.931,-10.40338 1.396,-12.12895 0.465,-1.72557 0.931,0.20254 1.396,5.00309 0.465,4.79792 0.931,12.21313 1.396,17.78703 0.465,5.57127 0.93,8.86984 1.396,7.52042 0.465,-1.35204 0.93,-7.37049 1.396,-14.70678 0.465,-7.33629 0.93,-15.51169 1.396,-19.40474 0.465,-3.89568 0.93,-3.14075 1.395,2.2122 0.466,5.35294 0.931,15.03295 1.396,23.2899 0.466,8.25431 0.931,14.48319 1.396,14.60419 0.466,0.11837 0.931,-5.9974 1.396,-14.95667 0.465,-8.9619 0.931,-20.19651 1.396,-26.82258 0.465,-6.62608 0.931,-8.10964 1.396,-3.21966 0.465,4.88999 0.931,15.91415 1.396,26.5385 0.465,10.62434 0.93,20.10707 1.396,22.52181 0.465,2.41474 0.93,-2.50155 1.396,-12.00006 0.465,-9.50114 0.93,-22.98214 1.395,-32.27548 0.466,-9.29597 0.931,-13.71511 1.396,-10.41654 0.466,3.29594 0.931,14.15965 1.396,26.09658 0.466,11.93693 0.931,24.13165 1.396,29.15315 0.465,5.02151 0.931,2.46735 1.396,-6.16574 0.465,-8.63573 0.931,-22.79539 1.396,-33.90899 0.465,-11.11097 0.931,-18.39465 1.396,-17.46611 0.465,0.92854 0.93,10.03775 1.396,21.7511 0.465,11.71597 0.93,25.24168 1.396,32.42278 0.465,7.17847 0.93,7.51516 1.396,0.95748 0.465,-6.55768 0.93,-19.55731 1.395,-31.05759 0.466,-11.49764 0.931,-20.70681 1.396,-22.22457 0.466,-1.51776 0.931,4.74268 1.396,14.75413 0.466,10.01145 0.931,23.07157 1.396,31.31274 0.465,8.24379 0.931,11.12412 1.396,7.22055 0.465,-3.90094 0.931,-14.27802 1.396,-24.65247 0.465,-10.37182 0.931,-20.03079 1.396,-23.35566 0.465,-3.32488 0.93,-0.13941 1.396,7.2416 0.465,7.38101 0.93,18.4157 1.396,26.39119 0.465,7.97285 0.93,12.37884 1.395,10.93999 0.466,-1.44148 0.931,-8.55945 1.396,-16.73485 0.466,-8.1754 0.931,-16.84007 1.396,-20.93566 0.466,-4.09559 0.931,-3.40642 1.396,1.20211 0.465,4.61116 0.931,12.76552 1.396,19.41001 0.465,6.64448 0.931,11.35297 1.396,11.62916 0.465,0.27883 0.931,-3.81413 1.396,-9.43538 0.465,-5.62388 0.93,-12.36569 1.396,-16.24296 0.465,-3.87989 0.93,-4.69007 1.396,-2.35424 0.465,2.33583 0.93,7.59671 1.396,12.41041 0.465,4.8137 0.93,8.86984 1.395,9.96936 0.466,1.10216 0.931,-0.75756 1.396,-4.10874 0.466,-3.34855 0.931,-7.93078 1.396,-10.97945 0.466,-3.05131 0.931,-4.40073 1.396,-3.55373 0.465,0.84964 0.931,3.78521 1.396,6.83125 0.465,3.04605 0.931,5.9974 1.396,7.22056 0.465,1.22052 0.931,0.67865 1.396,-1.03114 0.465,-1.70715 0.93,-4.43228 1.396,-6.4814 0.465,-2.04911 0.93,-3.30646 1.396,-3.21439 0.465,0.0921 0.93,1.48357 1.395,3.16705 0.466,1.68348 0.931,3.53794 1.396,4.50331 0.466,0.968 0.931,1.01272 1.396,0.29198 0.466,-0.72337 0.931,-2.14118 1.396,-3.33277 0.465,-1.19422 0.931,-2.09383 1.396,-2.26481 0.465,-0.17098 0.931,0.36826 1.396,1.17844 0.465,0.81017 0.931,1.82289 1.396,2.44368 0.465,0.62078 0.93,0.82332 1.396,0.58658 0.465,-0.23674 0.93,-0.87593 1.396,-1.48356 0.465,-0.605 0.93,-1.13898 1.396,-1.32837 0.465,-0.18677 0.93,-0.0316 1.395,0.3025 0.466,0.33406 0.931,0.82069 1.396,1.15739 0.466,0.33669 0.931,0.5103 1.396,0.46822 0.466,-0.0447 0.931,-0.29198 1.396,-0.56292 0.465,-0.2683 0.931,-0.53924 1.396,-0.6655 0.465,-0.12889 0.931,-0.11048 1.396,0.008 0.465,0.11574 0.931,0.31829 1.396,0.47611 0.465,0.15783 0.93,0.26305 1.396,0.27357"
     title="cos(10*x)*exp(-((x-10)**2)/8)"
     id="path20428" />
  <path
     style="fill:none;stroke:#000000;stroke-width:2.88551;stroke-linejoin:round;stroke-dasharray:none;stroke-opacity:1;stop-color:#000000"
     d="m 504.82291,315 c -39.99925,0 -79.99864,0 -107.49934,-33.75044 -27.5007,-33.75045 -42.5004,-101.24983 -57.50077,-101.24931 -15.00038,5.2e-4 -29.99971,67.49823 -57.49983,101.24899 C 254.82286,315 214.82366,315 174.82291,315"
     id="path21533"
     inkscape:path-effect="#path-effect21535"
     inkscape:original-d="m 504.82291,315 c -39.99925,7.5e-4 -79.99864,7.5e-4 -120,0 -14.99948,-67.50101 -29.99918,-135.00039 -45,-202.50218 -14.99962,67.50314 -29.99895,135.00085 -45,202.50218 -40.00005,7.5e-4 -79.99925,7.5e-4 -120,0"
     sodipodi:nodetypes="ccccc" />
  <path
     style="fill:none;stroke:#000000;stroke-width:3.556;stroke-linejoin:round;stroke-dasharray:none;stroke-opacity:1;marker-start:url(#marker21921);stop-color:#000000"
     d="m 69.82292,105 c 0,75.00075 0,150.00075 0,225"
     id="path21563"
     inkscape:path-effect="#path-effect21565"
     inkscape:original-d="m 69.82292,105 c 7.5e-4,75.00075 7.5e-4,150.00075 0,225" />
  <path
     style="fill:none;stroke:#000000;stroke-width:3.556;stroke-linejoin:round;stroke-dasharray:none;stroke-opacity:1;marker-end:url(#RoundedArrow);stop-color:#000000"
     d="m 67.948,330 c 170.00075,0 340.00075,0 510,0"
     id="path21567"
     inkscape:path-effect="#path-effect21569"
     inkscape:original-d="m 67.948,330 c 170.00075,7.5e-4 340.00075,7.5e-4 510,0" />
  <g
     ns1:version="1.8.2"
     ns1:texconverter="pdflatex"
     ns1:pdfconverter="inkscape"
     ns1:text="$\\mathcal{F}$"
     ns1:preamble="/Users/pkairys/Library/Application Support/org.inkscape.Inkscape/config/inkscape/extensions/textext/default_packages.tex"
     ns1:scale="1.7713786344527416"
     ns1:alignment="middle center"
     ns1:stroke-to-path="0"
     ns1:inkscapeversion="1.2.1"
     transform="matrix(4.8323946,0,0,4.988437,6.0404932e-4,190.84151)"
     ns1:jacobian_sqrt="1.77138"
     id="g21613"
     style="stroke:none;stroke-opacity:1;fill:#000000">
    <defs
       id="id-f87da353-4109-4dc7-b083-9dde5009760d">
      <g
         id="id-851be237-7b98-4922-9838-4e7e3551f47c">
        <g
           id="id-5705609e-cc4f-4dc7-82d1-134ece211939" />
        <g
           id="id-9eb03c7a-9052-4f56-9c18-fc34053659f5">
          <path
             d="m 8.28125,-6.4375 c 0,-0.453125 -0.78125,-0.375 -1.078125,-0.375 H 3.4375 c -0.5,0 -1.390625,0.28125 -1.546875,0.828125 C 1.90625,-5.9375 1.9375,-5.921875 2,-5.921875 c 0.21875,0 0.515625,-0.171875 0.65625,-0.328125 0.296875,0 0.609375,-0.015625 0.90625,-0.015625 h 0.625 c 0,0 -0.046875,0.171875 -0.046875,0.1875 -0.375,1.828125 -0.96875,3.359375 -1.40625,4.34375 -0.0625,0.125 -0.59375,1.375 -0.734375,1.5 -0.4375,0 -0.78125,-0.25 -0.953125,-0.640625 -0.03125,-0.046875 -0.03125,-0.09375 -0.09375,-0.09375 -0.234375,0 -0.78125,0.328125 -0.78125,0.484375 0,0.03125 0,0.046875 0.015625,0.0625 0.1875,0.46875 0.625,0.734375 1.125,0.734375 0.5,0 1.09375,-0.359375 1.40625,-0.734375 0.328125,-0.375 0.984375,-2.015625 1.25,-2.609375 H 5.890625 C 5.875,-3.015625 5.875,-3.015625 5.875,-3 c 0,0.046875 0.0625,0.0625 0.09375,0.0625 0.21875,0 0.796875,-0.265625 0.796875,-0.578125 0,-0.078125 -0.078125,-0.0625 -0.203125,-0.0625 H 4.171875 c 0.265625,-0.890625 0.609375,-1.78125 0.78125,-2.6875 h 1.3125 c 0.25,0 0.953125,-0.046875 1.125,0.171875 0.03125,0.046875 0,0.15625 0.03125,0.203125 C 7.4375,-5.875 7.46875,-5.859375 7.5,-5.859375 c 0.234375,0 0.78125,-0.296875 0.78125,-0.578125 z m 0,0"
             id="id-e9ea862b-5ffc-404e-af7c-30d7fe1c589d" />
        </g>
      </g>
    </defs>
    <g
       fill="#000000"
       fill-opacity="1"
       id="id-b08a7be9-a602-4db9-aca0-94ee78e0b5c6"
       transform="translate(-148.884,-127.947)"
       style="stroke:none;stroke-opacity:1;fill:#000000">
      <g
         transform="translate(148.712,134.765)"
         id="g21610"
         style="stroke:none;stroke-opacity:1;fill:#000000">
        <path
           d="m 8.28125,-6.4375 c 0,-0.453125 -0.78125,-0.375 -1.078125,-0.375 H 3.4375 c -0.5,0 -1.390625,0.28125 -1.546875,0.828125 C 1.90625,-5.9375 1.9375,-5.921875 2,-5.921875 c 0.21875,0 0.515625,-0.171875 0.65625,-0.328125 0.296875,0 0.609375,-0.015625 0.90625,-0.015625 h 0.625 c 0,0 -0.046875,0.171875 -0.046875,0.1875 -0.375,1.828125 -0.96875,3.359375 -1.40625,4.34375 -0.0625,0.125 -0.59375,1.375 -0.734375,1.5 -0.4375,0 -0.78125,-0.25 -0.953125,-0.640625 -0.03125,-0.046875 -0.03125,-0.09375 -0.09375,-0.09375 -0.234375,0 -0.78125,0.328125 -0.78125,0.484375 0,0.03125 0,0.046875 0.015625,0.0625 0.1875,0.46875 0.625,0.734375 1.125,0.734375 0.5,0 1.09375,-0.359375 1.40625,-0.734375 0.328125,-0.375 0.984375,-2.015625 1.25,-2.609375 H 5.890625 C 5.875,-3.015625 5.875,-3.015625 5.875,-3 c 0,0.046875 0.0625,0.0625 0.09375,0.0625 0.21875,0 0.796875,-0.265625 0.796875,-0.578125 0,-0.078125 -0.078125,-0.0625 -0.203125,-0.0625 H 4.171875 c 0.265625,-0.890625 0.609375,-1.78125 0.78125,-2.6875 h 1.3125 c 0.25,0 0.953125,-0.046875 1.125,0.171875 0.03125,0.046875 0,0.15625 0.03125,0.203125 C 7.4375,-5.875 7.46875,-5.859375 7.5,-5.859375 c 0.234375,0 0.78125,-0.296875 0.78125,-0.578125 z m 0,0"
           id="id-83c439b2-e844-4aa6-a7bc-b86d1eb4cdde"
           style="stroke-width:1.00004157;stroke-dasharray:none;stroke:none;fill:#000000;fill-opacity:1;stroke-opacity:1" />
      </g>
    </g>
  </g>
  <g
     ns1:version="1.8.2"
     ns1:texconverter="pdflatex"
     ns1:pdfconverter="inkscape"
     ns1:text="$\\omega$"
     ns1:preamble="/Users/pkairys/Library/Application Support/org.inkscape.Inkscape/config/inkscape/extensions/textext/default_packages.tex"
     ns1:scale="3.0"
     ns1:alignment="middle center"
     ns1:stroke-to-path="0"
     ns1:inkscapeversion="1.2.1"
     transform="matrix(6.3217982,0,0,6.3217982,330.5235,335.9985)"
     ns1:jacobian_sqrt="3.0"
     id="g22053"
     style="stroke:none;stroke-opacity:1;fill:#000000;fill-opacity:1">
    <defs
       id="id-77864cbd-77b0-4acc-920a-207729234db8">
      <g
         id="id-0a1a70a5-d494-497b-8a79-07daf07327b0">
        <g
           id="id-686a10f5-74b6-4e47-96bd-4c1057b0dabf" />
        <g
           id="id-cf6ae20c-3095-411c-89b9-59147668b7c6">
          <path
             d="m 6.03125,-3.703125 c 0,-0.453125 -0.171875,-0.703125 -0.40625,-0.703125 -0.25,0 -0.515625,0.234375 -0.515625,0.46875 0,0.09375 0.046875,0.203125 0.140625,0.296875 0.171875,0.15625 0.359375,0.421875 0.359375,0.84375 0,0.390625 -0.203125,0.96875 -0.5,1.421875 C 4.8125,-0.953125 4.4375,-0.609375 3.96875,-0.609375 3.40625,-0.609375 3.09375,-0.96875 3,-1.5 c 0.109375,-0.265625 0.34375,-0.90625 0.34375,-1.1875 0,-0.109375 -0.046875,-0.21875 -0.1875,-0.21875 -0.078125,0 -0.1875,0.03125 -0.265625,0.171875 C 2.78125,-2.53125 2.65625,-1.890625 2.65625,-1.53125 2.328125,-1.0625 1.9375,-0.609375 1.3125,-0.609375 c -0.671875,0 -0.875,-0.59375 -0.875,-1.140625 0,-1.25 1.015625,-2.296875 1.015625,-2.421875 0,-0.109375 -0.078125,-0.1875 -0.1875,-0.1875 -0.125,0 -0.203125,0.125 -0.265625,0.21875 -0.5,0.734375 -0.875,1.921875 -0.875,2.828125 0,0.6875 0.21875,1.421875 1.046875,1.421875 0.703125,0 1.171875,-0.5 1.53125,-1.046875 0.09375,0.578125 0.484375,1.046875 1.09375,1.046875 0.78125,0 1.25,-0.609375 1.609375,-1.359375 0.25,-0.484375 0.625,-1.84375 0.625,-2.453125 z m 0,0"
             id="id-93021ea8-f6c1-4cf6-8062-03a29649f0c5" />
        </g>
      </g>
    </defs>
    <g
       fill="#000000"
       fill-opacity="1"
       id="id-e207ccb1-74ab-463e-8f99-d4816b35af64"
       transform="translate(-148.837,-130.359)"
       style="stroke:none;stroke-opacity:1;fill:#000000;fill-opacity:1">
      <g
         transform="translate(148.712,134.765)"
         id="g22050"
         style="stroke:none;stroke-opacity:1;fill:#000000;fill-opacity:1">
        <path
           d="m 6.03125,-3.703125 c 0,-0.453125 -0.171875,-0.703125 -0.40625,-0.703125 -0.25,0 -0.515625,0.234375 -0.515625,0.46875 0,0.09375 0.046875,0.203125 0.140625,0.296875 0.171875,0.15625 0.359375,0.421875 0.359375,0.84375 0,0.390625 -0.203125,0.96875 -0.5,1.421875 C 4.8125,-0.953125 4.4375,-0.609375 3.96875,-0.609375 3.40625,-0.609375 3.09375,-0.96875 3,-1.5 c 0.109375,-0.265625 0.34375,-0.90625 0.34375,-1.1875 0,-0.109375 -0.046875,-0.21875 -0.1875,-0.21875 -0.078125,0 -0.1875,0.03125 -0.265625,0.171875 C 2.78125,-2.53125 2.65625,-1.890625 2.65625,-1.53125 2.328125,-1.0625 1.9375,-0.609375 1.3125,-0.609375 c -0.671875,0 -0.875,-0.59375 -0.875,-1.140625 0,-1.25 1.015625,-2.296875 1.015625,-2.421875 0,-0.109375 -0.078125,-0.1875 -0.1875,-0.1875 -0.125,0 -0.203125,0.125 -0.265625,0.21875 -0.5,0.734375 -0.875,1.921875 -0.875,2.828125 0,0.6875 0.21875,1.421875 1.046875,1.421875 0.703125,0 1.171875,-0.5 1.53125,-1.046875 0.09375,0.578125 0.484375,1.046875 1.09375,1.046875 0.78125,0 1.25,-0.609375 1.609375,-1.359375 0.25,-0.484375 0.625,-1.84375 0.625,-2.453125 z m 0,0"
           id="id-f365e09f-4bb3-45fe-8417-7186ca5549df"
           style="stroke:none;fill:#000000;fill-opacity:1;stroke-opacity:1" />
      </g>
    </g>
  </g>
</svg>
